<svg width="16" height="16" viewBox="0 0 16 16" fill="none" xmlns="http://www.w3.org/2000/svg">
<path d="M8.12084 0.933616L7.45793 1.59653C7.30103 1.75343 7.30103 2.00782 7.45793 2.16475L12.652 7.3588H1.22014C0.998259 7.3588 0.818359 7.5387 0.818359 7.76058V8.69808C0.818359 8.91997 0.998259 9.09987 1.22014 9.09987H12.652L7.45793 14.2939C7.30103 14.4508 7.30103 14.7052 7.45793 14.8622L8.12084 15.5251C8.27774 15.682 8.53213 15.682 8.68906 15.5251L15.7007 8.51346C15.8576 8.35657 15.8576 8.10217 15.7007 7.94524L8.68903 0.933616C8.53213 0.776685 8.27774 0.776685 8.12084 0.933616Z" fill="#007DFF"/>
</svg>
