<svg width="115" height="80" viewBox="0 0 115 80" fill="none" xmlns="http://www.w3.org/2000/svg">
<path d="M86.4727 0.315918C91.0989 0.315918 95.2802 1.11659 99.0167 2.71794C102.575 4.49722 105.422 6.98822 107.557 10.1909C109.336 12.6819 110.938 16.1515 112.361 20.5997C113.607 25.0479 114.229 30.0299 114.229 35.5457C114.229 44.4421 111.916 52.8047 107.29 60.6335C102.664 68.6402 95.5471 74.8677 85.9389 79.3159L83.5369 74.5119C88.163 72.3767 92.3444 69.263 96.0808 65.1707C99.6394 61.2562 102.13 57.0749 103.554 52.6267C105.155 47.6448 105.422 42.7517 104.354 37.9477C99.7284 43.4634 93.234 46.2213 84.8714 46.2213C77.7543 46.2213 72.0606 44.1752 67.7903 40.0828C63.52 36.1684 61.3849 30.5637 61.3849 23.2686C61.3849 16.3294 63.698 10.7247 68.3241 6.45443C72.9502 2.36208 78.9998 0.315918 86.4727 0.315918ZM25.0876 0.315918C29.7137 0.315918 33.895 1.11659 37.6315 2.71794C41.1901 4.49722 44.0369 6.98822 46.1721 10.1909C47.9513 12.6819 49.5527 16.1515 50.9761 20.5997C52.2216 25.0479 52.8443 30.0299 52.8443 35.5457C52.8443 44.4421 50.5313 52.8047 45.9052 60.6335C41.279 68.6402 34.1619 74.8677 24.5538 79.3159L22.1518 74.5119C26.7779 72.3767 30.9592 69.263 34.6957 65.1707C38.2543 61.2562 40.7453 57.0749 42.1687 52.6267C43.77 47.6448 44.0369 42.7517 42.9694 37.9477C38.3432 43.4634 31.8489 46.2213 23.4862 46.2213C16.3691 46.2213 10.6754 44.1752 6.40516 40.0828C2.13489 36.1684 -0.00025177 30.5637 -0.00025177 23.2686C-0.00025177 16.3294 2.31281 10.7247 6.93894 6.45443C11.5651 2.36208 17.6146 0.315918 25.0876 0.315918Z" fill="#007DFF"/>
</svg>
