<svg width="21" height="21" viewBox="0 0 21 21" fill="none" xmlns="http://www.w3.org/2000/svg">
<path d="M10.3909 0.472849L9.50706 1.35673C9.29786 1.56593 9.29786 1.90512 9.50706 2.11436L16.4325 9.03976H1.19001C0.894163 9.03976 0.654297 9.27962 0.654297 9.57547V10.8255C0.654297 11.1213 0.894163 11.3612 1.19001 11.3612H16.4325L9.50706 18.2866C9.29786 18.4958 9.29786 18.835 9.50706 19.0443L10.3909 19.9281C10.6001 20.1373 10.9393 20.1373 11.1486 19.9281L20.4974 10.5793C20.7066 10.3701 20.7066 10.0309 20.4974 9.82168L11.1485 0.472849C10.9393 0.263608 10.6001 0.263608 10.3909 0.472849Z" fill="#007DFF"/>
</svg>
