<svg width="21" height="21" viewBox="0 0 21 21" fill="none" xmlns="http://www.w3.org/2000/svg">
<path d="M10.9177 19.9281L11.8016 19.0442C12.0108 18.835 12.0108 18.4958 11.8016 18.2866L4.87611 11.3612H20.1186C20.4144 11.3612 20.6543 11.1213 20.6543 10.8255V9.57546C20.6543 9.27961 20.4144 9.03974 20.1186 9.03974H4.87611L11.8016 2.11429C12.0108 1.90509 12.0108 1.5659 11.8016 1.35666L10.9177 0.472815C10.7085 0.263619 10.3693 0.263619 10.16 0.472815L0.811194 9.82166C0.601998 10.0309 0.601998 10.3701 0.811194 10.5793L10.16 19.9281C10.3692 20.1373 10.7084 20.1373 10.9177 19.9281Z" fill="#007DFF"/>
</svg>
